<svg version="1.2" xmlns="http://www.w3.org/2000/svg" viewBox="0 0 1024 1024" width="1024" height="1024"><style>.a{opacity:.99;fill:#7a7a7a}</style><path fill-rule="evenodd" class="a" d="m1013.9 889.3l-21.8 51.7-58.5 34h-842.9l-59.8-32.7-21.8-55.7v-745l12.3-44.9 32.6-35.4 50.3-16.3h815.8l61.1 25.9 32.7 61.1zm-909.6-742.3l17.7 38.1 40.8-2.7 13.6-35.4-43.5-28.5zm119.6 2.7l16.3 34 38.1 1.3 19-35.3-16.3-25.8-27.2-5.5zm121-5.4l10.9 36.7 36.7 6.8 24.5-27.2-13.6-35.4-31.3-6.8zm-281.4 145.5v596.9l12.2 21.7 852.5 8.2 31.2-28.6v-599.5l-12.2-19.1-860.6-5.4zm276 57.1l34 9.5 138.6 138.7 138.7-140.1 47.6-1.3 54.4 54.4 4.1 29.9-148.2 153.6 142.7 140 6.8 28.6-62.5 70.7-34 2.7-152.3-145.5-137.3 140.1-46.2 1.3-54.4-54.3-4.1-34 145.5-149.6-146.8-155 6.8-31.3z"/></svg>